<svg width="50" height="50" viewBox="0 0 50 50" fill="none" xmlns="http://www.w3.org/2000/svg">
<path d="M6.25 13.5417H-9.23872e-08L6.875 7.6294e-07H13.2291L6.25 13.5417Z" transform="translate(5.41675 36.4583)" fill="#344A5E"/>
<path d="M6.9791 13.5417H13.2291L6.3541 7.6294e-07H-1.35899e-06L6.9791 13.5417Z" transform="translate(31.3542 36.4583)" fill="#344A5E"/>
<path d="M45.2083 0H0V31.4583H45.2083V0Z" transform="translate(2.39575 4.89581)" fill="#E8EAE9"/>
<path d="M50 2.3958C50 1.0417 48.9583 0 47.6042 0H2.3958C1.0417 0 0 1.0417 0 2.3958C0 3.75 1.0417 4.7917 2.3958 4.7917H47.5C48.9583 4.8958 50 3.75 50 2.3958Z" fill="#F3705A"/>
<path d="M50 2.3958C50 1.0416 48.9583 -7.62939e-07 47.6042 -7.62939e-07H2.3958C1.0417 -7.62939e-07 0 1.0416 0 2.3958C0 3.75 1.0417 4.7916 2.3958 4.7916H47.5C48.9583 4.7916 50 3.75 50 2.3958Z" transform="translate(0 33.8542)" fill="#F3705A"/>
<path d="M1.875 3.9584C2.0833 4.6876 1.4583 5.4167 0.729199 5.4167C0.416699 5.4167 0.208398 5.3125 -1.3113e-07 5.1042V7.6042C-1.3113e-07 8.2292 0.520801 8.6459 1.0417 8.6459H3.4375C3.3334 8.8542 3.2292 9.0625 3.2292 9.375C3.2292 10.1042 3.8542 10.625 4.6875 10.5208C5.1042 10.4166 5.4167 10.1041 5.5208 9.6875C5.6249 9.2709 5.5208 8.8542 5.3125 8.6458H7.7083C8.3333 8.6458 8.75 8.125 8.75 7.6041V5.2083C8.9583 5.4166 9.1667 5.5208 9.4792 5.5208C10.2084 5.5208 10.7292 4.7916 10.625 4.0625C10.5208 3.6458 10.2083 3.3333 9.7917 3.2292C9.375 3.125 8.9584 3.2292 8.75 3.4375V1.0417C8.75 0.416699 8.2292 3.15905e-07 7.7083 3.15905e-07H5.3125C5.5208 0.208301 5.625 0.416699 5.625 0.729199C5.625 1.4584 4.8958 2.0834 4.1667 1.875C3.6459 1.7708 3.3334 1.4583 3.2292 1.0417C3.125 0.625 3.2292 0.208399 3.4375 3.15905e-07H1.0417C0.416699 3.15905e-07 -1.3113e-07 0.520801 -1.3113e-07 1.0417V3.4375C0.3125 3.2292 0.625 3.125 1.0417 3.2292C1.4584 3.3334 1.7709 3.6459 1.875 3.9584Z" transform="translate(6.14575 8.02081)" fill="#344A5E"/>
<path d="M18.75 1.1458L16.4583 4.8958L15.9375 3.4375C4.5833 7.7083 2.1875 19.375 2.0833 19.4791L0 19.0625C0.104199 18.5417 2.7083 6.25 15.1042 1.4583L14.5834 1.3113e-07L18.75 1.1458Z" transform="translate(23.4375 9.47919)" fill="#66C6B9"/>
<path d="M6.25 1.4584L4.6875 3.125L6.25 4.7917L4.7917 6.25L3.125 4.5834L1.5625 6.25L-1.3113e-07 4.7917L1.6667 3.125L-1.3113e-07 1.4584L1.5625 -1.3113e-07L3.125 1.6667L4.7917 -1.3113e-07L6.25 1.4584Z" transform="translate(23.3333 7.70831)" fill="#FFD15C"/>
<path d="M4.5834 3.125L6.25 4.7916L4.7917 6.25L3.125 4.5833L1.4584 6.25L-1.0252e-06 4.7916L1.6667 3.125L-1.0252e-06 1.4583L1.4584 4.29153e-07L3.125 1.6666L4.7917 4.29153e-07L6.25 1.4583L4.5834 3.125Z" transform="translate(38.3333 16.9792)" fill="#F3705A"/>
<path d="M3.4375 2.98023e-07C1.5625 2.98023e-07 -1.19209e-06 1.5625 -1.19209e-06 3.4375C-1.19209e-06 5.3125 1.5625 6.875 3.4375 6.875C5.3125 6.875 6.875 5.3125 6.875 3.4375C6.875 1.5625 5.3125 2.98023e-07 3.4375 2.98023e-07ZM3.4375 4.8958C2.7083 4.8958 2.0833 4.2708 2.0833 3.5416C2.0833 2.8124 2.7083 2.1874 3.4375 2.1874C4.1667 2.1874 4.7917 2.8124 4.7917 3.5416C4.7917 4.2708 4.1667 4.8958 3.4375 4.8958Z" transform="translate(29.375 23.125)" fill="#55C0EB"/>
<path d="M13.4375 0H0V2.0833H13.4375V0Z" transform="translate(6.14575 22.5)" fill="#ADB3BA"/>
<path d="M8.4375 0H0V2.0833H8.4375V0Z" transform="translate(6.14575 27.9167)" fill="#ADB3BA"/>
</svg>
