<svg width="50" height="52" viewBox="0 0 50 52" fill="none" xmlns="http://www.w3.org/2000/svg">
<path d="M42.5926 0V3.58621H36.1111V0H13.8889V3.58621H7.40741V0H0V9.86207H50V0H42.5926Z" transform="translate(0 3.58618)" fill="#FC3952"/>
<path d="M7.40741 0H0V38.5517H50V0H42.5926H36.1111H13.8889H7.40741Z" transform="translate(0 13.4483)" fill="#EDEADA"/>
<path d="M26.8519 0H25H18.5185H16.6667H10.1852H8.33333H0V8.06897V9.86207V16.1379V17.931V26H8.33333H10.1852H16.6667H18.5185H25H26.8519H35.1852V17.931V16.1379V9.86207V8.06897V0H26.8519ZM18.5185 1.7931H25V8.06897H18.5185V1.7931ZM25 16.1379H18.5185V9.86207H25V16.1379ZM10.1852 9.86207H16.6667V16.1379H10.1852V9.86207ZM10.1852 1.7931H16.6667V8.06897H10.1852V1.7931ZM1.85185 1.7931H8.33333V8.06897H1.85185V1.7931ZM1.85185 9.86207H8.33333V16.1379H1.85185V9.86207ZM8.33333 24.2069H1.85185V17.931H8.33333V24.2069ZM16.6667 24.2069H10.1852V17.931H16.6667V24.2069ZM25 24.2069H18.5185V17.931H25V24.2069ZM33.3333 24.2069H26.8519V17.931H33.3333V24.2069ZM33.3333 16.1379H26.8519V9.86207H33.3333V16.1379ZM26.8519 8.06897V1.7931H33.3333V8.06897H26.8519Z" transform="translate(7.40735 19.7241)" fill="#CEC9AE"/>
<path d="M6.48148 0H0V7.17241H6.48148V0Z" transform="translate(7.40741)" fill="#28384C"/>
<path d="M6.48148 0H0V7.17241H6.48148V0Z" transform="translate(36.1111)" fill="#28384C"/>
<path d="M6.48148 0H0V6.27586H6.48148V0Z" transform="translate(25.9259 29.5862)" fill="#26B99A"/>
</svg>
