<svg width="50" height="50" viewBox="0 0 50 50" fill="none" xmlns="http://www.w3.org/2000/svg">
<path d="M27.8226 27.2947L13.871 28.5024L6.15274e-07 27.2947L13.871 6.14283e-07L27.8226 27.2947Z" transform="translate(21.6935 21.4976)" fill="#1589AD"/>
<path d="M1.23055e-06 6.14283e-07L13.9516 27.2947L1.23055e-06 28.5024" transform="translate(35.5645 21.4976)" fill="#035670"/>
<path d="M7.90323 20.2093L15.8871 12.2383L11.371 3.46216L7.90323 -3.07141e-07L4.43548 3.46216L-1.23055e-06 12.2383L7.90323 20.2093Z" transform="translate(27.6613 24.8792)" fill="#1EA4C4"/>
<path d="M1.23055e-06 20.2093L7.98387 12.2383L3.46774 3.46216L1.23055e-06 -3.07141e-07" transform="translate(35.5645 24.8792)" fill="#066B93"/>
<path d="M41.2097 40.1771L20.7258 41.9485L-9.61365e-09 40.5797L20.7258 0L41.2097 40.1771Z" transform="translate(0.322571 8.05151)" fill="#1589AD"/>
<path d="M-3.07637e-07 0L20.7258 40.5797L-3.07637e-07 41.9485" transform="translate(21.0484 8.05151)" fill="#057091"/>
<path d="M11.7742 29.7907L23.4677 18.0354L16.8548 5.07246L11.7742 3.07141e-07L6.6129 5.07246L1.53818e-07 18.0354L11.7742 29.7907Z" transform="translate(9.27417 12.963)" fill="#1EA4C4"/>
<path d="M-3.07637e-07 29.7907L11.6936 18.0354L5.08065 5.07246L-3.07637e-07 3.07141e-07" transform="translate(21.0484 12.963)" fill="#1290AD"/>
<path d="M13.4677 19.9678L16.7742 23.2689L20.2419 19.8873L10.1613 0L1.53818e-07 19.8873L3.46774 23.2689L6.77419 19.9678L10.1613 23.2689L13.4677 19.9678Z" transform="translate(10.8871 8.05151)" fill="#9ADFEF"/>
<path d="M-3.07637e-07 23.2689L3.30645 19.9678L6.6129 23.2689L10.0806 19.8873L-3.07637e-07 0" transform="translate(21.0484 8.05151)" fill="#7DD4E2"/>
<path d="M1.12903 2.25443C1.75258 2.25443 2.25806 1.74976 2.25806 1.12721C2.25806 0.504671 1.75258 0 1.12903 0C0.505485 0 0 0.504671 0 1.12721C0 1.74976 0.505485 2.25443 1.12903 2.25443Z" transform="translate(19.9194)" fill="#C92B00"/>
<path d="M0.806451 0.161031C0.564515 0.161031 0.564516 0.161031 -6.15274e-07 7.67854e-08V7.48792C-6.15274e-07 7.80998 0.48387 8.05153 0.806451 8.05153C1.12903 8.05153 1.6129 7.80998 1.6129 7.48792V7.67854e-08C1.6129 0.322061 1.04839 0.161031 0.806451 0.161031Z" transform="translate(20.1613 2.73755)" fill="#1EA4C4"/>
<path d="M-6.15274e-07 8.05153C0.32258 8.05153 0.806451 7.80998 0.806451 7.48792V7.67854e-08C0.403225 0.161031 0.241935 0.161031 -6.15274e-07 0.161031" transform="translate(20.9678 2.73755)" fill="#087799"/>
<path d="M1.6129 0C2.09677 0.402576 2.09677 1.12721 1.6129 1.61031C1.12903 2.0934 0.48387 2.0934 -6.15274e-07 1.61031" transform="translate(20.1613 0.402588)" fill="#9E1600"/>
<path d="M0.16116 0.966963C0.250167 0.966963 0.322321 0.750501 0.322321 0.483482C0.322321 0.216462 0.250167 0 0.16116 0C0.0721537 0 0 0.216462 0 0.483482C0 0.750501 0.0721537 0.966963 0.16116 0.966963Z" transform="translate(20.3191 0.994019) scale(1.0008 0.999184) rotate(-134.984)" fill="#E28133"/>
<path d="M7.66129 1.61031L9.1129 -7.67854e-08H-6.15274e-07V3.22061H9.1129L7.66129 1.61031Z" transform="translate(25 4.91144)" fill="#9E1600"/>
<path d="M9.1129 3.22061L7.66129 1.61031L9.1129 -7.67854e-08H-6.15274e-07" transform="translate(25 4.91144)" fill="#770B00"/>
<path d="M6.45161 0H0V2.41546H6.45161V0Z" transform="translate(21.7742 3.30115)" fill="#C92B00"/>
<path d="M-6.15274e-07 -7.67854e-08H6.45161V2.41546" transform="translate(21.7742 3.30115)" fill="#9E1600"/>
<path d="M50 0H0V1.6103H50V0Z" transform="translate(0 48.3897)" fill="#057091"/>
</svg>
